<?xml version="1.0" standalone="no"?>
<!DOCTYPE svg PUBLIC "-//W3C//DTD SVG 20010904//EN"
 "http://www.w3.org/TR/2001/REC-SVG-20010904/DTD/svg10.dtd">
<svg version="1.0" xmlns="http://www.w3.org/2000/svg"
 width="80" height="50" viewBox="0 0 160.000000 160.000000"
 preserveAspectRatio="xMidYMid meet">
<metadata>
Created by potrace 1.10, written by Peter Selinger 2001-2011
</metadata>
<g transform="translate(0.000000,160.000000) scale(0.100000,-0.100000)"
fill="#000000" stroke="none">
<path d="M1123 1482 c-13 -2 -31 -14 -41 -27 -11 -14 -23 -21 -27 -17 -3 4 -6
3 -4 -3 1 -5 -3 -23 -9 -38 -7 -16 -12 -35 -12 -43 0 -24 19 -54 35 -54 7 0
16 -8 18 -17 4 -17 5 -17 6 0 1 15 12 21 33 18 12 -1 65 83 72 114 9 46 -22
75 -71 67z m47 -44 c0 -43 -31 -93 -70 -113 -39 -20 -50 -13 -43 28 6 43 27
74 66 97 43 27 47 25 47 -12z"/>
<path d="M781 1392 c-19 -24 -19 -24 -50 -6 -25 15 -35 16 -49 7 -9 -6 -16
-16 -14 -22 1 -6 -2 -11 -8 -11 -5 0 -10 -10 -10 -22 0 -19 -2 -20 -12 -6 -30
36 -80 23 -92 -26 -4 -18 -11 -23 -27 -19 -26 7 -71 -17 -65 -34 3 -7 1 -13
-4 -13 -5 0 -7 -7 -3 -16 4 -10 -2 -17 -18 -21 -13 -4 -25 -6 -27 -4 -1 1 -10
-5 -18 -13 -10 -11 -12 -21 -6 -33 9 -19 2 -65 -10 -64 -27 2 -40 0 -35 -6 4
-3 2 -12 -4 -19 -7 -9 -5 -18 8 -31 14 -14 16 -22 9 -30 -61 -64 -60 -62 -40
-86 11 -12 23 -25 27 -28 12 -9 10 -17 -8 -35 -21 -21 -19 -50 5 -67 11 -8 17
-17 12 -22 -4 -4 1 -5 11 -2 21 8 23 -6 3 -22 -17 -14 -14 -63 4 -69 27 -9 46
-39 44 -69 -1 -16 3 -30 10 -30 63 -5 66 -7 73 -45 6 -40 8 -41 59 -38 27 1
33 -3 42 -29 6 -17 18 -31 27 -31 10 0 13 -5 9 -12 -5 -7 5 -3 20 10 34 26 48
28 39 5 -4 -11 -3 -14 5 -9 7 4 15 1 18 -8 10 -26 42 -29 71 -6 16 12 29 17
31 11 2 -6 10 -11 18 -11 8 0 14 -4 14 -10 0 -19 37 -10 58 15 22 25 42 33 42
16 0 -15 41 -20 62 -8 11 7 17 19 14 30 -2 9 0 15 5 11 5 -3 9 2 9 12 0 13 3
14 14 4 27 -22 60 -8 72 30 9 28 17 36 40 38 42 5 57 21 50 53 -5 26 14 56 27
43 3 -4 12 0 20 7 16 17 29 59 17 59 -15 0 -19 40 -4 41 30 3 34 4 33 13 0 5
5 12 12 16 9 6 6 17 -10 44 -13 20 -18 36 -12 36 11 0 41 51 41 70 0 5 -7 10
-16 10 -8 0 -12 5 -9 10 3 6 -1 10 -9 10 -20 0 -20 13 0 51 16 32 6 59 -22 59
-18 0 -37 37 -24 45 14 9 12 44 -2 59 -7 6 -25 11 -39 10 -23 -2 -26 1 -24 29
1 18 -3 38 -8 45 -11 14 -63 16 -72 2 -3 -5 -15 -10 -25 -10 -12 0 -25 -14
-36 -40 -10 -22 -22 -36 -28 -33 -6 4 -3 -3 7 -14 9 -11 17 -24 17 -30 0 -6 9
-13 20 -16 11 -3 20 -13 20 -22 0 -9 11 -30 25 -46 13 -16 22 -35 19 -42 -2
-7 4 -22 15 -34 20 -21 20 -22 1 -45 -18 -24 -18 -24 2 -37 17 -11 18 -15 7
-22 -8 -5 -10 -9 -5 -9 5 0 3 -7 -4 -15 -7 -8 -10 -24 -7 -35 3 -14 -3 -30
-19 -47 -13 -14 -24 -32 -24 -40 0 -7 -11 -23 -25 -35 -14 -12 -25 -27 -25
-34 0 -6 -13 -14 -30 -18 -22 -4 -30 -11 -30 -27 0 -19 -2 -20 -17 -8 -15 12
-16 12 -8 -1 6 -12 5 -13 -5 -3 -10 10 -19 7 -42 -12 -26 -22 -31 -23 -44 -10
-13 12 -17 12 -35 -6 l-21 -21 -24 23 c-19 18 -26 20 -38 10 -13 -11 -21 -9
-46 9 -18 13 -38 19 -49 15 -13 -4 -20 0 -24 15 -3 12 -15 24 -26 27 -12 3
-28 21 -37 39 -9 19 -21 31 -27 27 -7 -4 -8 0 -3 12 5 14 4 16 -7 6 -12 -9
-13 -7 -10 13 3 16 -2 30 -15 42 -16 13 -19 22 -11 36 8 14 5 26 -12 50 -13
17 -18 28 -12 25 15 -9 26 27 18 54 -4 13 -1 27 10 39 10 11 14 26 11 37 -4
14 3 26 24 41 17 13 27 28 24 36 -3 9 5 19 22 28 16 7 33 22 39 34 5 11 16 19
23 16 7 -2 21 3 31 12 10 9 31 18 47 20 16 3 37 7 47 11 12 5 23 1 33 -11 14
-18 14 -18 7 0 -5 16 -3 18 12 13 11 -5 22 -1 30 9 9 14 14 14 20 4 6 -9 4
-11 -5 -5 -9 5 -11 4 -6 -4 4 -6 12 -9 17 -5 6 3 19 -2 30 -12 17 -16 22 -16
29 -4 6 8 10 11 10 6 0 -5 9 3 21 18 25 32 43 92 32 109 -4 6 -8 16 -8 22 0 5
-13 16 -28 23 -26 13 -30 12 -54 -14 l-26 -28 -16 34 c-20 41 -52 46 -80 12z
m63 -27 c20 -41 20 -58 1 -95 -20 -39 -32 -38 -52 5 -15 31 -15 40 -4 68 7 18
14 39 14 48 2 25 24 11 41 -26z m-94 -50 c11 -34 0 -85 -19 -85 -5 0 -19 12
-30 26 -21 26 -28 84 -15 119 6 14 9 13 30 -6 13 -12 28 -36 34 -54z m216 30
c7 -40 -8 -84 -37 -111 -24 -22 -30 -15 -36 38 -4 37 -1 49 22 76 15 18 31 32
35 32 5 0 12 -16 16 -35z m-347 -21 c29 -21 52 -74 44 -102 -16 -62 -93 24
-93 104 0 19 20 18 49 -2z m-81 -74 c45 -28 71 -100 37 -100 -35 0 -73 30 -89
70 -9 22 -16 43 -16 45 0 12 38 3 68 -15z m628 -17 c-10 -43 -40 -77 -77 -89
-28 -10 -35 -9 -37 3 -8 32 21 76 62 94 54 25 59 24 52 -8z m-691 -68 c29 -14
55 -50 55 -75 0 -18 -57 -10 -84 11 -14 11 -33 34 -41 50 -15 28 -15 29 11 29
14 0 41 -7 59 -15z m757 -37 c-24 -39 -83 -72 -112 -63 -25 8 -25 16 1 49 26
32 52 44 97 45 l34 1 -20 -32z m-766 -79 c31 -29 30 -45 -3 -52 -33 -6 -70 7
-100 35 -28 26 -29 35 -5 42 32 9 85 -3 108 -25z m824 -6 c3 -2 -10 -18 -28
-34 -24 -21 -42 -29 -70 -29 -57 0 -67 12 -35 42 16 14 35 28 43 31 16 6 81
-1 90 -10z m-836 -94 c25 -20 26 -22 9 -35 -25 -19 -89 -17 -124 3 -36 21 -36
29 -1 41 45 17 87 13 116 -9z m831 -11 c31 -14 31 -22 3 -42 -28 -20 -97 -20
-123 0 -20 15 -20 15 5 34 28 22 77 26 115 8z m-811 -88 c8 -8 5 -16 -13 -31
-32 -26 -61 -32 -102 -22 -42 11 -43 27 -4 54 32 22 97 21 119 -1z m796 -29
c19 -16 32 -32 29 -35 -3 -3 -26 -9 -50 -12 -39 -5 -49 -3 -78 22 -31 26 -32
29 -15 41 30 22 77 16 114 -16z m-770 -65 c0 -35 -36 -59 -94 -64 -56 -4 -58
-4 -47 16 19 37 61 62 102 62 27 0 39 -4 39 -14z m693 -10 c29 -12 67 -53 67
-72 0 -4 -23 -4 -52 -2 -42 4 -56 11 -75 34 -28 35 -28 41 -5 47 29 8 32 7 65
-7z m-649 -80 c-10 -34 -48 -67 -87 -76 -30 -6 -37 -5 -37 7 0 29 35 73 69 87
44 17 64 11 55 -18z m606 -11 c22 -20 45 -73 36 -82 -9 -9 -82 15 -95 31 -7 8
-16 29 -21 46 l-9 33 36 -6 c19 -4 44 -13 53 -22z m-540 -54 c0 -15 -9 -40
-20 -53 -19 -24 -76 -55 -85 -46 -2 2 0 21 6 42 21 74 99 120 99 57z m434 8
c28 -13 56 -64 56 -103 0 -26 -1 -26 -29 -11 -40 20 -71 62 -71 96 0 32 7 35
44 18z m-354 -70 c0 -31 -7 -47 -29 -70 -41 -40 -51 -37 -51 17 0 37 5 51 30
75 36 37 50 31 50 -22z m287 2 c24 -35 29 -76 13 -101 -7 -12 -12 -11 -30 5
-35 31 -52 73 -45 106 9 39 32 35 62 -10z m-199 4 c7 -14 12 -35 12 -46 0 -24
-23 -71 -44 -88 -13 -11 -16 -6 -26 29 -12 44 -7 71 19 107 21 29 25 28 39 -2z
m96 -7 c19 -27 20 -84 2 -117 l-13 -23 -21 27 c-24 30 -29 83 -12 116 14 25
25 24 44 -3z"/>
<path d="M925 1168 c-16 -6 -38 -14 -47 -19 -10 -5 -38 -9 -62 -9 -69 0 -141
-33 -191 -88 -29 -31 -42 -53 -39 -64 3 -10 0 -18 -6 -18 -6 0 -9 -3 -6 -8 2
-4 1 -26 -4 -50 -4 -23 -3 -45 1 -48 5 -3 7 -9 4 -14 -9 -15 25 -80 63 -120
58 -61 161 -91 227 -64 17 6 36 9 43 7 6 -3 12 0 12 6 0 6 16 19 35 28 19 9
32 20 30 24 -3 4 2 9 10 13 8 3 15 12 15 20 0 8 5 16 11 18 26 9 38 148 14
168 -8 7 -12 16 -9 21 3 5 -4 9 -15 9 -16 0 -21 6 -21 24 0 14 4 27 8 30 5 3
9 25 10 49 2 31 -3 51 -18 70 -23 30 -22 29 -65 15z m59 -58 c12 -69 -45 -120
-134 -120 -66 -1 -128 -32 -145 -74 -24 -58 -17 -94 12 -65 9 9 19 6 39 -10
37 -29 75 -27 108 6 25 25 26 28 9 34 -27 11 -83 10 -122 -1 -43 -12 -47 -8
-31 29 17 41 69 64 149 64 85 0 148 -17 156 -43 4 -11 1 -44 -5 -74 -27 -130
-170 -210 -288 -160 -44 18 -97 67 -120 109 -23 45 -21 141 5 190 41 79 93
108 215 123 41 5 88 17 104 25 34 18 40 14 48 -33z"/>
<path d="M298 432 c-16 -2 -28 -8 -28 -13 0 -5 -6 -9 -14 -9 -8 0 -21 -9 -29
-20 -8 -11 -17 -17 -20 -13 -4 3 -7 -3 -7 -13 0 -11 -5 -25 -10 -30 -16 -16
-18 -84 -3 -127 15 -42 58 -86 85 -87 9 0 19 -4 23 -10 3 -5 15 -6 28 -1 13 5
35 7 50 4 18 -4 34 1 47 12 12 11 20 13 20 7 0 -7 6 -12 14 -12 8 0 17 -6 19
-12 4 -9 6 -8 6 2 1 13 2 13 11 0 6 -9 13 -11 18 -5 4 6 16 15 27 21 15 9 20
22 20 55 0 35 4 44 19 47 11 3 16 0 11 -7 -3 -6 -12 -9 -18 -5 -7 3 -4 -1 5
-9 10 -8 14 -17 10 -21 -4 -4 0 -13 9 -19 9 -7 17 -15 17 -19 1 -5 5 -8 8 -7
3 0 14 -10 25 -22 12 -15 19 -17 19 -8 0 10 2 11 8 2 6 -9 18 -9 52 3 25 8 51
21 58 28 11 10 19 11 38 2 13 -6 24 -14 24 -18 0 -5 9 -8 20 -8 11 0 20 -4 20
-10 0 -6 9 -6 23 -2 12 5 32 7 45 6 12 0 22 3 22 8 0 5 6 6 13 1 32 -20 84
-19 108 3 16 14 20 14 43 -1 14 -10 26 -14 26 -9 0 4 5 3 12 -4 7 -7 17 -8 30
-1 10 5 18 6 18 2 0 -4 7 1 16 12 12 16 17 17 23 7 5 -8 11 -13 15 -13 3 1 7
0 9 0 1 -1 25 -3 52 -4 40 -2 56 2 78 21 16 13 25 24 21 24 -5 0 -3 5 4 12 16
16 15 73 -2 107 -8 15 -26 32 -41 39 -36 16 -96 15 -122 -3 -19 -14 -24 -12
-66 30 -41 42 -47 45 -71 34 -14 -7 -23 -15 -21 -19 3 -5 -3 -11 -12 -14 -15
-6 -15 -8 -3 -16 13 -8 12 -10 -2 -10 -18 0 -24 20 -11 34 10 10 13 37 3 31
-4 -3 -13 2 -20 11 -7 8 -19 13 -27 10 -7 -3 -13 0 -13 7 0 6 -10 0 -23 -13
-14 -15 -23 -37 -23 -55 1 -22 -3 -29 -14 -25 -8 3 -41 5 -72 5 -46 0 -60 -4
-76 -22 -19 -23 -39 -32 -27 -14 4 8 -24 24 -47 26 -3 0 -10 3 -14 8 -4 4 -18
7 -30 7 -13 0 -43 11 -68 24 -48 26 -78 25 -99 -3 -7 -9 -28 -17 -47 -19 -19
-1 -38 -9 -43 -17 -4 -9 -14 -12 -20 -8 -7 4 -6 -1 2 -11 18 -21 0 -46 -21
-29 -15 12 -79 23 -72 12 2 -4 -2 -10 -8 -12 -13 -5 13 -10 42 -8 28 2 38 -14
41 -64 l4 -50 -47 -9 c-96 -19 -164 35 -162 127 1 101 49 148 148 146 l56 -2
0 -38 c0 -29 -4 -39 -16 -39 -9 0 -18 9 -21 20 -6 21 -43 36 -67 27 -31 -12
-37 -162 -8 -198 25 -30 52 -20 52 21 0 19 -5 30 -14 30 -17 0 -39 77 -24 86
5 3 7 12 4 20 -7 19 0 18 45 -8 46 -26 58 -19 69 41 5 31 4 41 -6 41 -7 0 -14
5 -16 11 -4 11 -60 17 -110 11z m773 -58 c10 -13 10 -17 -2 -25 -31 -19 -76
-2 -66 25 8 21 51 21 68 0z m105 -22 c7 -4 13 -16 16 -27 2 -12 10 -19 21 -17
10 2 17 -4 17 -13 0 -8 -9 -15 -20 -15 -18 0 -20 -7 -20 -55 0 -48 2 -55 20
-55 11 0 20 -6 20 -14 0 -19 -54 -30 -79 -16 -18 9 -21 20 -21 75 0 41 -4 65
-12 68 -10 4 -10 7 0 18 6 7 12 23 12 36 0 23 23 31 46 15z m-539 -18 c7 -20
-32 -55 -67 -63 -30 -6 -36 -12 -44 -45 -7 -26 -6 -43 2 -57 19 -30 15 -34
-30 -31 l-43 4 0 83 0 84 28 -1 c18 -1 27 -7 27 -17 1 -12 7 -9 23 10 38 45
94 63 104 33z m125 -54 c22 -27 23 -88 3 -117 -33 -48 -122 -36 -151 19 -34
65 17 134 91 125 24 -4 47 -14 57 -27z m189 20 c10 -6 19 -20 19 -31 0 -16 -5
-20 -27 -17 -21 2 -27 8 -25 21 3 16 0 17 -17 7 -16 -8 -21 -21 -21 -54 0 -59
20 -75 56 -47 32 25 51 18 31 -12 -37 -57 -132 -37 -149 31 -20 75 63 139 133
102z m453 -19 c27 -27 28 -91 2 -120 -37 -40 -109 -36 -143 8 -7 9 -13 35 -13
58 0 34 5 46 28 63 33 27 94 22 126 -9z m-336 -53 c2 -38 7 -68 12 -68 6 0 10
-6 10 -13 0 -16 -93 -14 -98 2 -2 6 1 11 7 11 16 0 14 113 -1 129 -11 10 -5
12 27 9 l40 -3 3 -67z"/>
<path d="M677 273 c-4 -3 -7 -28 -7 -55 0 -35 4 -50 16 -55 20 -8 34 13 34 54
0 53 -20 79 -43 56z"/>
<path d="M1316 265 c-9 -24 -7 -78 3 -94 5 -8 16 -11 26 -8 23 9 18 110 -6
115 -9 2 -19 -4 -23 -13z"/>
</g>
</svg>
